<mxfile host="app.diagrams.net" modified="2023-06-06T23:47:45.805Z" agent="Mozilla/5.0 (Macintosh; Intel Mac OS X 10_15_7) AppleWebKit/537.36 (KHTML, like Gecko) Chrome/114.0.0.0 Safari/537.36" version="21.2.3" etag="UrbscUGspO689dHEaZNr" type="github">
  <diagram name="Page-1" id="xXZVvcbn3m8yzzzZbI0E">
    <mxGraphModel>
      <root>
        <mxCell id="0" />
        <mxCell id="1" parent="0" />
      </root>
    </mxGraphModel>
  </diagram>
</mxfile>
